<!-- lock-icon-white.svg -->
<svg width="24" height="24" viewBox="0 0 24 24" fill="none" xmlns="http://www.w3.org/2000/svg">
  <path d="M12 5C10.3431 5 9 6.34315 9 8V11H7C6.44772 11 6 11.4477 6 12V19C6 19.5523 6.44772 20 7 20H17C17.5523 20 18 19.5523 18 19V12C18 11.4477 17.5523 11 17 11H15V8C15 6.34315 13.6569 5 12 5ZM12 7C12.5523 7 13 7.44772 13 8V11H11V8C11 7.44772 11.4477 7 12 7ZM8 13H16V18H8V13ZM12 3C14.2091 3 16 4.79086 16 7V8H8V7C8 4.79086 9.79086 3 12 3Z" fill="white" stroke="black"/>
</svg>
